<svg width="182" height="20" viewBox="0 0 182 20" fill="none" xmlns="http://www.w3.org/2000/svg">
<path d="M21.4141 3.68712V7.49449C21.4141 8.3489 21.0843 9.20331 20.4248 9.86286L15.6731 14.6146C15.2234 15.0643 14.6088 15.3341 13.9193 15.3341C13.2148 15.3341 12.6002 15.0643 12.1505 14.6146L7.39878 9.86286C6.73923 9.20331 6.42445 8.3489 6.42445 7.49449V3.68712H8.0883V7.49449C8.0883 7.92919 8.2382 8.3489 8.56797 8.67867L13.3197 13.4304C13.4696 13.5803 13.6794 13.6702 13.9193 13.6702C14.1441 13.6702 14.354 13.5803 14.5039 13.4304L19.2556 8.67867C19.5854 8.3489 19.7353 7.92919 19.7353 7.49449V3.68712H21.4141Z" fill="white"/>
<path d="M6.24638 4.49683H21.9855L27.2319 9.7432L21.9855 14.9896H6.24638L1 9.7432L6.24638 4.49683Z" stroke="white" stroke-width="1.49896" stroke-linejoin="round"/>
<path d="M34.7351 7.01482C34.7351 5.1711 36.2191 3.68712 38.0628 3.68712H49.7247V5.35097H38.0628C37.1334 5.35097 36.3989 6.08547 36.3989 7.01482C36.3989 7.92919 37.1334 8.67867 38.0628 8.67867H46.382C48.2258 8.67867 49.7247 10.1626 49.7247 12.0064C49.7247 13.8501 48.2258 15.3341 46.382 15.3341H34.7351V13.6702H46.382C47.3114 13.6702 48.0459 12.9357 48.0459 12.0064C48.0459 11.092 47.3114 10.3425 46.382 10.3425H38.0628C36.2191 10.3425 34.7351 8.85855 34.7351 7.01482ZM62.8648 3.68712C64.7085 3.68712 66.2075 5.1711 66.2075 7.01482V15.3341H64.5286V10.3425H52.8817V15.3341H51.2178V7.01482C51.2178 5.1711 52.7018 3.68712 54.5455 3.68712H62.8648ZM64.5286 8.67867V7.01482C64.5286 6.08547 63.7941 5.35097 62.8648 5.35097H54.5455C53.6162 5.35097 52.8817 6.08547 52.8817 7.01482V8.67867H64.5286ZM67.8616 7.01482C67.8616 5.1711 69.3456 3.68712 71.1893 3.68712H82.8513V5.35097H71.1893C70.26 5.35097 69.5255 6.08547 69.5255 7.01482V8.67867H79.5086V10.3425H69.5255V15.3341H67.8616V7.01482ZM84.5054 7.01482C84.5054 5.1711 85.9894 3.68712 87.8331 3.68712H99.495V5.35097H87.8331C86.9037 5.35097 86.1692 6.08547 86.1692 7.01482V8.67867H96.1524V10.3425H86.1692V12.0064C86.1692 12.9357 86.9037 13.6702 87.8331 13.6702H99.495V15.3341H87.8331C85.9894 15.3341 84.5054 13.8501 84.5054 12.0064V7.01482ZM123.648 3.68712V7.49449C123.648 8.3489 123.319 9.20331 122.659 9.86286L117.907 14.6146C117.458 15.0643 116.843 15.3341 116.153 15.3341C115.449 15.3341 114.834 15.0643 114.385 14.6146L109.633 9.86286C108.973 9.20331 108.659 8.3489 108.659 7.49449V3.68712H110.322V7.49449C110.322 7.92919 110.472 8.3489 110.802 8.67867L115.554 13.4304C115.704 13.5803 115.914 13.6702 116.153 13.6702C116.378 13.6702 116.588 13.5803 116.738 13.4304L121.49 8.67867C121.82 8.3489 121.969 7.92919 121.969 7.49449V3.68712H123.648ZM125.287 15.3341V3.68712H126.966V15.3341H125.287ZM128.625 7.01482C128.625 5.1711 130.109 3.68712 131.953 3.68712H143.615V5.35097H131.953C131.024 5.35097 130.289 6.08547 130.289 7.01482C130.289 7.92919 131.024 8.67867 131.953 8.67867H140.272C142.116 8.67867 143.615 10.1626 143.615 12.0064C143.615 13.8501 142.116 15.3341 140.272 15.3341H128.625V13.6702H140.272C141.202 13.6702 141.936 12.9357 141.936 12.0064C141.936 11.092 141.202 10.3425 140.272 10.3425H131.953C130.109 10.3425 128.625 8.85855 128.625 7.01482ZM145.093 15.3341V3.68712H146.772V15.3341H145.093ZM160.078 3.68712C161.922 3.68712 163.421 5.1711 163.421 7.01482V12.0064C163.421 13.8501 161.922 15.3341 160.078 15.3341H151.759C149.915 15.3341 148.431 13.8501 148.431 12.0064V7.01482C148.431 5.1711 149.915 3.68712 151.759 3.68712H160.078ZM161.742 12.0064V7.01482C161.742 6.08547 161.007 5.35097 160.078 5.35097H151.759C150.829 5.35097 150.095 6.08547 150.095 7.01482V12.0064C150.095 12.9357 150.829 13.6702 151.759 13.6702H160.078C161.007 13.6702 161.742 12.9357 161.742 12.0064ZM178.386 12.8458V3.68712H180.064V12.8458C180.064 14.2248 178.94 15.3341 177.561 15.3341C176.797 15.3341 176.107 14.9893 175.657 14.4497L168.208 5.65077C168.043 5.47089 167.818 5.35097 167.563 5.35097C167.098 5.35097 166.739 5.72571 166.739 6.1754V15.3341H165.06V6.1754C165.06 4.79636 166.184 3.68712 167.563 3.68712C168.328 3.68712 169.017 4.03188 169.467 4.57151L176.917 13.3704C177.081 13.5503 177.306 13.6702 177.561 13.6702C178.026 13.6702 178.386 13.2955 178.386 12.8458Z" fill="white"/>
</svg>
