<svg width="20" height="20" viewBox="0 0 20 20" fill="none" xmlns="http://www.w3.org/2000/svg">
<path d="M9.16675 17.5002V16.6077C6.33984 16.2034 4.16675 13.7722 4.16675 10.8335V6.66683C4.16675 3.44517 6.77842 0.833496 10.0001 0.833496C13.2217 0.833496 15.8334 3.44517 15.8334 6.66683V10.8335C15.8334 13.7722 13.6603 16.2034 10.8334 16.6077V17.5002H14.1667V19.1668H5.83341V17.5002H9.16675ZM10.0001 7.50016C9.53983 7.50016 9.16675 7.12706 9.16675 6.66683C9.16675 6.2066 9.53983 5.8335 10.0001 5.8335C10.4603 5.8335 10.8334 6.2066 10.8334 6.66683C10.8334 7.12706 10.4603 7.50016 10.0001 7.50016ZM10.0001 9.16683C11.3808 9.16683 12.5001 8.04754 12.5001 6.66683C12.5001 5.28612 11.3808 4.16683 10.0001 4.16683C8.61933 4.16683 7.50008 5.28612 7.50008 6.66683C7.50008 8.04754 8.61933 9.16683 10.0001 9.16683Z" fill="white"/>
</svg>
